<svg width="11" height="15" viewBox="0 0 11 15" fill="none" xmlns="http://www.w3.org/2000/svg">
<path d="M5.29179 0C2.37953 0 0.0102539 2.43697 0.0102539 5.4324C0.0102539 9.14982 4.73671 14.6072 4.93794 14.8377C5.12695 15.0543 5.45696 15.0539 5.64563 14.8377C5.84686 14.6072 10.5733 9.14982 10.5733 5.4324C10.5733 2.43697 8.20401 0 5.29179 0ZM5.29179 8.1656C3.82656 8.1656 2.63454 6.93949 2.63454 5.4324C2.63454 3.92531 3.82659 2.69924 5.29179 2.69924C6.75698 2.69924 7.949 3.92534 7.949 5.43243C7.949 6.93952 6.75698 8.1656 5.29179 8.1656Z" fill="white"/>
</svg>
