<svg width="15" height="16" viewBox="0 0 15 16" fill="none" xmlns="http://www.w3.org/2000/svg">
<path d="M7.5 9.875C8.53553 9.875 9.375 9.03553 9.375 8C9.375 6.96447 8.53553 6.125 7.5 6.125C6.46447 6.125 5.625 6.96447 5.625 8C5.625 9.03553 6.46447 9.875 7.5 9.875Z" fill="#ACACAC"/>
<path d="M11.567 4.63613C10.2861 3.75781 8.91533 3.3125 7.49297 3.3125C6.21299 3.3125 4.96523 3.69336 3.78428 4.43984C2.59336 5.19424 1.42588 6.56445 0.46875 8C1.24277 9.28906 2.30156 10.6145 3.4043 11.3744C4.66934 12.2457 6.04482 12.6875 7.49297 12.6875C8.92852 12.6875 10.3011 12.246 11.574 11.3753C12.6946 10.6074 13.761 9.28379 14.5312 8C13.7584 6.72764 12.6885 5.40547 11.567 4.63613ZM7.5 10.8125C6.94374 10.8125 6.39997 10.6475 5.93746 10.3385C5.47495 10.0295 5.11446 9.59021 4.90159 9.0763C4.68872 8.56238 4.63302 7.99688 4.74154 7.45131C4.85006 6.90574 5.11793 6.4046 5.51126 6.01126C5.9046 5.61793 6.40574 5.35006 6.95131 5.24154C7.49688 5.13302 8.06238 5.18872 8.5763 5.40159C9.09021 5.61446 9.52947 5.97495 9.83851 6.43746C10.1475 6.89997 10.3125 7.44374 10.3125 8C10.3116 8.74566 10.0151 9.46053 9.4878 9.9878C8.96053 10.5151 8.24566 10.8116 7.5 10.8125Z" fill="#ACACAC"/>
</svg>
